<svg width="60" height="46" viewBox="0 0 60 46" fill="none" xmlns="http://www.w3.org/2000/svg">
<path d="M56.9998 0.0197512C56.7442 -0.00658374 56.4866 -0.00658374 56.2311 0.0197512H3.73105C3.39457 0.0249359 3.06032 0.0753887 2.7373 0.169751L29.8311 27.151L56.9998 0.0197512Z" fill="black"/>
<path d="M59.775 2.62573L32.475 29.8132C31.7724 30.5117 30.8219 30.9037 29.8312 30.9037C28.8406 30.9037 27.8901 30.5117 27.1875 29.8132L0.13125 2.83198C0.0480739 3.13768 0.00397254 3.45269 0 3.76948V41.2695C0 42.264 0.395088 43.2179 1.09835 43.9211C1.80161 44.6244 2.75544 45.0195 3.75 45.0195H56.25C57.2446 45.0195 58.1984 44.6244 58.9017 43.9211C59.6049 43.2179 60 42.264 60 41.2695V3.76948C59.9851 3.37884 59.9092 2.99292 59.775 2.62573ZM6.31875 41.2695H3.7125V38.5882L17.3438 25.0695L19.9875 27.7132L6.31875 41.2695ZM56.2125 41.2695H53.5875L39.9187 27.7132L42.5625 25.0695L56.1937 38.5882L56.2125 41.2695Z" fill="black"/>
</svg>
