<svg width="60" height="60" viewBox="0 0 60 60" fill="none" xmlns="http://www.w3.org/2000/svg">
<path fill-rule="evenodd" clip-rule="evenodd" d="M18.6625 2.665C21.595 2.53 22.53 2.5 30 2.5C37.47 2.5 38.405 2.5325 41.335 2.665C44.265 2.7975 46.265 3.265 48.015 3.9425C49.8475 4.635 51.51 5.7175 52.885 7.1175C54.285 8.49 55.365 10.15 56.055 11.985C56.735 13.735 57.2 15.735 57.335 18.66C57.47 21.5975 57.5 22.5325 57.5 30C57.5 37.47 57.4675 38.405 57.335 41.3375C57.2025 44.2625 56.735 46.2625 56.055 48.0125C55.365 49.8477 54.2832 51.5105 52.885 52.885C51.51 54.285 49.8475 55.365 48.015 56.055C46.265 56.735 44.265 57.2 41.34 57.335C38.405 57.47 37.47 57.5 30 57.5C22.53 57.5 21.595 57.4675 18.6625 57.335C15.7375 57.2025 13.7375 56.735 11.9875 56.055C10.1523 55.3649 8.48955 54.2831 7.115 52.885C5.71595 51.5117 4.63329 49.8497 3.9425 48.015C3.265 46.265 2.8 44.265 2.665 41.34C2.53 38.4025 2.5 37.4675 2.5 30C2.5 22.53 2.5325 21.595 2.665 18.665C2.7975 15.735 3.265 13.735 3.9425 11.985C4.63431 10.1502 5.7178 8.48828 7.1175 7.115C8.4901 5.71625 10.1512 4.63361 11.985 3.9425C13.735 3.265 15.735 2.8 18.66 2.665H18.6625ZM41.1125 7.615C38.2125 7.4825 37.3425 7.455 30 7.455C22.6575 7.455 21.7875 7.4825 18.8875 7.615C16.205 7.7375 14.75 8.185 13.78 8.5625C12.4975 9.0625 11.58 9.655 10.6175 10.6175C9.70511 11.5051 9.00295 12.5857 8.5625 13.78C8.185 14.75 7.7375 16.205 7.615 18.8875C7.4825 21.7875 7.455 22.6575 7.455 30C7.455 37.3425 7.4825 38.2125 7.615 41.1125C7.7375 43.795 8.185 45.25 8.5625 46.22C9.0025 47.4125 9.705 48.495 10.6175 49.3825C11.505 50.295 12.5875 50.9975 13.78 51.4375C14.75 51.815 16.205 52.2625 18.8875 52.385C21.7875 52.5175 22.655 52.545 30 52.545C37.345 52.545 38.2125 52.5175 41.1125 52.385C43.795 52.2625 45.25 51.815 46.22 51.4375C47.5025 50.9375 48.42 50.345 49.3825 49.3825C50.295 48.495 50.9975 47.4125 51.4375 46.22C51.815 45.25 52.2625 43.795 52.385 41.1125C52.5175 38.2125 52.545 37.3425 52.545 30C52.545 22.6575 52.5175 21.7875 52.385 18.8875C52.2625 16.205 51.815 14.75 51.4375 13.78C50.9375 12.4975 50.345 11.58 49.3825 10.6175C48.4948 9.70518 47.4142 9.00303 46.22 8.5625C45.25 8.185 43.795 7.7375 41.1125 7.615ZM26.4875 38.4775C28.4491 39.2941 30.6334 39.4043 32.6673 38.7893C34.7012 38.1743 36.4585 36.8723 37.639 35.1056C38.8196 33.3389 39.3501 31.2172 39.1401 29.1028C38.9301 26.9883 37.9925 25.0124 36.4875 23.5125C35.5281 22.5537 34.368 21.8195 33.0908 21.3629C31.8136 20.9062 30.4511 20.7384 29.1012 20.8715C27.7514 21.0047 26.4479 21.4354 25.2845 22.1328C24.1211 22.8302 23.1269 23.7769 22.3733 24.9046C21.6196 26.0324 21.1255 27.3132 20.9263 28.6549C20.7271 29.9966 20.8279 31.3657 21.2213 32.6638C21.6148 33.9618 22.2912 35.1565 23.2018 36.1618C24.1124 37.1671 25.2346 37.958 26.4875 38.4775ZM20.005 20.005C21.3176 18.6924 22.8758 17.6513 24.5907 16.9409C26.3057 16.2305 28.1438 15.8649 30 15.8649C31.8562 15.8649 33.6943 16.2305 35.4092 16.9409C37.1242 17.6513 38.6824 18.6924 39.995 20.005C41.3076 21.3176 42.3487 22.8758 43.0591 24.5907C43.7694 26.3057 44.1351 28.1438 44.1351 30C44.1351 31.8562 43.7694 33.6943 43.0591 35.4092C42.3487 37.1242 41.3076 38.6824 39.995 39.995C37.3442 42.6458 33.7488 44.1351 30 44.1351C26.2511 44.1351 22.6558 42.6458 20.005 39.995C17.3542 37.3442 15.8649 33.7488 15.8649 30C15.8649 26.2511 17.3542 22.6558 20.005 20.005ZM47.27 17.97C47.5953 17.6632 47.8556 17.2942 48.0358 16.8849C48.2159 16.4757 48.312 16.0344 48.3185 15.5873C48.3251 15.1402 48.2418 14.6964 48.0737 14.282C47.9056 13.8677 47.6561 13.4913 47.3399 13.1751C47.0237 12.8589 46.6473 12.6094 46.233 12.4413C45.8186 12.2732 45.3748 12.1899 44.9277 12.1965C44.4806 12.203 44.0393 12.2991 43.6301 12.4792C43.2208 12.6593 42.8518 12.9197 42.545 13.245C41.9483 13.8776 41.6216 14.7178 41.6342 15.5873C41.6469 16.4568 41.998 17.2872 42.6129 17.9021C43.2278 18.517 44.0581 18.8681 44.9277 18.8807C45.7972 18.8934 46.6374 18.5667 47.27 17.97Z" fill="black"/>
</svg>
