<svg width="60" height="60" viewBox="0 0 60 60" fill="none" xmlns="http://www.w3.org/2000/svg">
<path fill-rule="evenodd" clip-rule="evenodd" d="M7.41981e-07 5.01273C7.41981e-07 3.68328 0.528126 2.40827 1.46819 1.4682C2.40826 0.528132 3.68327 6.68267e-06 5.01273 6.68267e-06H54.9818C55.6407 -0.00106937 56.2932 0.127815 56.9022 0.379279C57.5112 0.630744 58.0645 0.999851 58.5307 1.46547C58.9968 1.93109 59.3665 2.48407 59.6186 3.09276C59.8708 3.70145 60.0004 4.35389 60 5.01273V54.9818C60.0007 55.6408 59.8715 56.2934 59.6197 56.9024C59.368 57.5114 58.9986 58.0648 58.5328 58.5308C58.0669 58.9969 57.5138 59.3666 56.9049 59.6187C56.2961 59.8708 55.6435 60.0004 54.9845 60H5.01273C4.35422 60 3.70216 59.8703 3.09381 59.6182C2.48546 59.3661 1.93274 58.9966 1.46723 58.5308C1.00172 58.0651 0.632542 57.5122 0.380789 56.9037C0.129036 56.2952 -0.000357533 55.6431 7.41981e-07 54.9845V5.01273ZM23.7491 22.8764H31.8736V26.9564C33.0464 24.6109 36.0464 22.5 40.5545 22.5C49.1973 22.5 51.2455 27.1718 51.2455 35.7436V51.6218H42.4991V37.6964C42.4991 32.8145 41.3264 30.06 38.3482 30.06C34.2164 30.06 32.4982 33.03 32.4982 37.6964V51.6218H23.7491V22.8764ZM8.74909 51.2482H17.4982V22.5H8.74909V51.2455V51.2482ZM18.75 13.1236C18.7665 13.8727 18.6332 14.6176 18.3579 15.3145C18.0827 16.0114 17.671 16.6463 17.147 17.1819C16.623 17.7175 15.9974 18.1431 15.3067 18.4337C14.616 18.7242 13.8743 18.8739 13.125 18.8739C12.3757 18.8739 11.634 18.7242 10.9433 18.4337C10.2526 18.1431 9.62697 17.7175 9.10301 17.1819C8.57904 16.6463 8.16735 16.0114 7.89207 15.3145C7.6168 14.6176 7.4835 13.8727 7.5 13.1236C7.53238 11.6532 8.13923 10.254 9.1906 9.22551C10.242 8.19705 11.6542 7.62114 13.125 7.62114C14.5958 7.62114 16.008 8.19705 17.0594 9.22551C18.1108 10.254 18.7176 11.6532 18.75 13.1236Z" fill="black"/>
</svg>
