<svg width="80" height="80" viewBox="0 0 80 80" fill="none" xmlns="http://www.w3.org/2000/svg">
<path d="M14.7549 68.0025L9.13989 5H70.8599L65.2374 67.9925L39.9624 75L14.7549 68.0025Z" fill="#1572B6"/>
<path d="M40 69.6451L60.425 63.9826L65.23 10.1526H40V69.6451Z" fill="#33A9DC"/>
<path d="M40 32.9776H50.225L50.93 25.0651H40V17.3376H59.375L59.19 19.4101L57.2925 40.7051H40V32.9776Z" fill="white"/>
<path d="M40.0476 53.045L40.0126 53.055L31.4076 50.73L30.8576 44.5675H23.1001L24.1826 56.7L40.0101 61.095L40.0476 61.085V53.045Z" fill="#EBEBEB"/>
<path d="M49.5675 40.3774L48.6375 50.7249L40.02 53.0499V61.0899L55.86 56.6999L55.9775 55.3949L57.32 40.3774H49.5675Z" fill="white"/>
<path d="M40.0277 17.3376V25.0651H21.3627L21.2077 23.3276L20.8552 19.4101L20.6702 17.3376H40.0277Z" fill="#EBEBEB"/>
<path d="M40 32.9775V40.705H31.5025L31.3475 38.9675L30.9975 35.05L30.8125 32.9775H40Z" fill="#EBEBEB"/>
</svg>
