<svg width="80" height="80" viewBox="0 0 80 80" fill="none" xmlns="http://www.w3.org/2000/svg">
<path d="M53.3333 53.3333C60.6971 53.3333 66.6667 47.3638 66.6667 40C66.6667 32.6362 60.6971 26.6666 53.3333 26.6666C45.9695 26.6666 40 32.6362 40 40C40 47.3638 45.9695 53.3333 53.3333 53.3333Z" fill="#19BCFE"/>
<path fill-rule="evenodd" clip-rule="evenodd" d="M26.6668 80C30.203 80 33.5944 78.5953 36.0949 76.0948C38.5954 73.5943 40.0002 70.2029 40.0002 66.6667V53.3334H26.6668C23.1306 53.3334 19.7392 54.7381 17.2387 57.2386C14.7383 59.7391 13.3335 63.1305 13.3335 66.6667C13.3335 70.2029 14.7383 73.5943 17.2387 76.0948C19.7392 78.5953 23.1306 80 26.6668 80Z" fill="#09CF83"/>
<path fill-rule="evenodd" clip-rule="evenodd" d="M26.6668 53.3333H40.0002V26.6666H26.6668C23.1306 26.6666 19.7392 28.0714 17.2387 30.5719C14.7383 33.0724 13.3335 36.4637 13.3335 40C13.3335 43.5362 14.7383 46.9276 17.2387 49.4281C19.7392 51.9285 23.1306 53.3333 26.6668 53.3333Z" fill="#A259FF"/>
<path fill-rule="evenodd" clip-rule="evenodd" d="M26.6668 26.6667H40.0002V0H26.6668C23.1306 0 19.7392 1.40476 17.2387 3.90524C14.7383 6.40573 13.3335 9.79711 13.3335 13.3333C13.3335 16.8696 14.7383 20.2609 17.2387 22.7614C19.7392 25.2619 23.1306 26.6667 26.6668 26.6667Z" fill="#F24E1E"/>
<path fill-rule="evenodd" clip-rule="evenodd" d="M53.3333 26.6667H40V0H53.3333C56.8696 0 60.2609 1.40476 62.7614 3.90524C65.2619 6.40573 66.6667 9.79711 66.6667 13.3333C66.6667 16.8696 65.2619 20.2609 62.7614 22.7614C60.2609 25.2619 56.8696 26.6667 53.3333 26.6667Z" fill="#FF7262"/>
</svg>
