<svg width="80" height="80" viewBox="0 0 80 80" fill="none" xmlns="http://www.w3.org/2000/svg">
<g clip-path="url(#clip0)">
<path d="M78.4912 36.4358L43.5625 1.50892C41.5522 -0.502647 38.2897 -0.502647 36.2769 1.50892L29.0238 8.76204L38.2247 17.963C40.3628 17.2405 42.8147 17.7252 44.5191 19.4295C46.2316 21.1449 46.7128 23.6177 45.9728 25.7627L54.84 34.6302C56.9853 33.8911 59.4606 34.3692 61.1741 36.0855C63.5688 38.4792 63.5688 42.3589 61.1741 44.7542C58.7788 47.1499 54.8991 47.1499 52.5025 44.7542C50.7012 42.9511 50.2563 40.3058 51.1681 38.0867L42.8988 29.8174L42.8978 51.5789C43.4973 51.8753 44.0448 52.2668 44.5191 52.7383C46.9137 55.132 46.9137 59.012 44.5191 61.4092C42.1237 63.8036 38.2422 63.8036 35.8503 61.4092C33.4556 59.012 33.4556 55.1324 35.8503 52.7386C36.4242 52.1644 37.1062 51.7097 37.8569 51.4008V29.4364C37.1051 29.1295 36.4227 28.6746 35.8503 28.0986C34.0359 26.2867 33.5997 23.6245 34.5294 21.3967L25.4594 12.3258L1.50937 36.2742C-0.503125 38.2877 -0.503125 41.5505 1.50937 43.5624L36.4387 78.4899C38.4497 80.5017 41.7116 80.5017 43.725 78.4899L78.4909 43.7245C80.5028 41.712 80.5028 38.4474 78.4909 36.4358" fill="#DE4C36"/>
</g>
<defs>
<clipPath id="clip0">
<rect width="80" height="80" fill="white"/>
</clipPath>
</defs>
</svg>
