<svg width="80" height="80" viewBox="0 0 80 80" fill="none" xmlns="http://www.w3.org/2000/svg">
<path d="M14.755 68.0025L9.13745 5H70.8624L65.2374 67.9925L39.9625 75L14.755 68.0025Z" fill="#E44F26"/>
<path d="M40 69.6451L60.425 63.9826L65.23 10.1526H40V69.6451Z" fill="#F1662A"/>
<path d="M40 33.5174H29.775L29.07 25.6049H40V17.8774H20.625L20.81 19.9524L22.7075 41.2449H40V33.5174Z" fill="#EBEBEB"/>
<path d="M40 53.5849L39.965 53.5949L31.36 51.2724L30.81 45.1099H23.0525L24.135 57.2399L39.965 61.6349L40 61.6249V53.5849Z" fill="#EBEBEB"/>
<path d="M39.9724 33.5175V41.245H49.4874L48.5924 51.2675L39.9724 53.5925V61.6325L55.8149 57.24L55.9299 55.935L57.7449 35.5925L57.9349 33.5175H39.9724Z" fill="white"/>
<path d="M39.9724 17.8774V25.6049H58.6374L58.7924 23.8699L59.1449 19.9524L59.3299 17.8774H39.9724Z" fill="white"/>
</svg>
