<svg width="80" height="80" viewBox="0 0 80 80" fill="none" xmlns="http://www.w3.org/2000/svg">
<path d="M0 0H80V80H0V0Z" fill="#F7DF1E"/>
<path d="M21.035 66.8537L27.1569 63.1487C28.3381 65.2428 29.4125 67.0147 31.9897 67.0147C34.46 67.0147 36.0178 66.0484 36.0178 62.2897V36.7278H43.5356V62.3959C43.5356 70.1825 38.9712 73.7268 32.3119 73.7268C26.2978 73.7268 22.8069 70.6121 21.0347 66.8531" fill="black"/>
<path d="M47.619 66.0482L53.7402 62.5041C55.3518 65.1357 57.4462 67.0688 61.1512 67.0688C64.2665 67.0688 66.2527 65.5113 66.2527 63.3632C66.2527 60.7857 64.2121 59.8725 60.7752 58.3694L58.8962 57.5632C53.4721 55.2547 49.8743 52.3547 49.8743 46.2329C49.8743 40.5941 54.1702 36.2979 60.883 36.2979C65.6624 36.2979 69.0993 37.9628 71.5693 42.3125L65.7155 46.0719C64.4265 43.7628 63.0308 42.85 60.8827 42.85C58.6808 42.85 57.2846 44.2463 57.2846 46.0719C57.2846 48.3272 58.6808 49.2407 61.9027 50.6369L63.7821 51.4422C70.1727 54.1813 73.7705 56.9735 73.7705 63.256C73.7705 70.0229 68.4543 73.7279 61.3121 73.7279C54.3312 73.7279 49.8202 70.3985 47.6187 66.0485" fill="black"/>
</svg>
