<svg width="71" height="80" viewBox="0 0 71 80" fill="none" xmlns="http://www.w3.org/2000/svg">
<g clip-path="url(#clip0)">
<path d="M35.4325 79.852C34.3322 79.852 33.3052 79.5586 32.3516 79.0451L22.5946 73.2496C21.1275 72.4427 21.861 72.1493 22.3012 72.0026C24.2818 71.3424 24.6486 71.1956 26.7026 70.0217C26.9229 69.875 27.2163 69.9483 27.4361 70.095L34.919 74.57C35.2125 74.7168 35.5792 74.7168 35.7993 74.57L65.0699 57.6242C65.3633 57.4774 65.51 57.184 65.51 56.8172V22.9983C65.51 22.6315 65.3633 22.3381 65.0699 22.1914L35.7993 5.31855C35.5059 5.17184 35.1391 5.17184 34.919 5.31855L5.64844 22.1916C5.35502 22.3383 5.2083 22.7051 5.2083 22.9986V56.8172C5.2083 57.1107 5.35502 57.4774 5.64844 57.6242L13.6448 62.2456C17.9731 64.4463 20.6871 61.8788 20.6871 59.3114V25.9325C20.6871 25.4924 21.0541 25.0523 21.5676 25.0523H25.3091C25.7492 25.0523 26.1893 25.419 26.1893 25.9325V59.3111C26.1893 65.1065 23.0347 68.4809 17.5327 68.4809C15.8455 68.4809 14.5251 68.4809 10.7839 66.647L3.08097 62.2456C1.1737 61.145 0 59.091 0 56.8903V23.0719C0 20.8712 1.1737 18.8172 3.08097 17.7166L32.3516 0.770731C34.1855 -0.256259 36.6796 -0.256259 38.5135 0.770731L67.7841 17.7166C69.6913 18.817 70.8651 20.8709 70.8651 23.0719V56.8906C70.8651 59.0913 69.6913 61.1453 67.7841 62.2456L38.5135 79.1921C37.5599 79.6322 36.4595 79.8523 35.4325 79.8523V79.852ZM44.4556 56.5969C31.6177 56.5969 28.9769 50.7284 28.9769 45.7399C28.9769 45.2997 29.3437 44.8596 29.8572 44.8596H33.6717C34.1118 44.8596 34.4789 45.153 34.4789 45.5932C35.0657 49.481 36.7529 51.3886 44.529 51.3886C50.6912 51.3886 53.3323 49.9948 53.3323 46.6938C53.3323 44.7862 52.5988 43.3925 42.9885 42.4386C34.9924 41.6316 30.0039 39.8711 30.0039 33.4891C30.0039 27.5466 34.9921 24.0255 43.3553 24.0255C52.7452 24.0255 57.3669 27.2532 57.9538 34.2957C57.9538 34.5158 57.8804 34.7359 57.7337 34.9559C57.587 35.1026 57.3669 35.2493 57.1469 35.2493H53.3323C52.9653 35.2493 52.5988 34.9559 52.5251 34.5891C51.6448 30.5545 49.3708 29.2341 43.3553 29.2341C36.6065 29.2341 35.7993 31.5815 35.7993 33.3421C35.7993 35.4697 36.7529 36.1296 45.8494 37.3033C54.8728 38.477 59.1275 40.1645 59.1275 46.4734C59.0541 52.9291 53.7725 56.5969 44.4556 56.5969Z" fill="#539E43"/>
</g>
<defs>
<clipPath id="clip0">
<rect width="70.8651" height="80" fill="white"/>
</clipPath>
</defs>
</svg>
