<svg width="80" height="80" viewBox="0 0 80 80" fill="none" xmlns="http://www.w3.org/2000/svg">
<path d="M40 46.1851C43.4518 46.1851 46.25 43.3868 46.25 39.9351C46.25 36.4833 43.4518 33.6851 40 33.6851C36.5482 33.6851 33.75 36.4833 33.75 39.9351C33.75 43.3868 36.5482 46.1851 40 46.1851Z" fill="#00D8FF"/>
<path d="M40 54.2651C32.4878 54.4468 24.9945 53.4342 17.8 51.2651C14.4766 50.2115 11.3768 48.5519 8.6575 46.3701C7.61982 45.6247 6.75568 44.6637 6.12436 43.5529C5.49303 42.4422 5.10947 41.208 5 39.9351C5 35.8026 9.54 31.7526 17.145 29.1026C24.5318 26.7544 32.2498 25.6164 40 25.7326C47.6468 25.6257 55.2614 26.7432 62.555 29.0426C65.7557 30.063 68.7503 31.6424 71.4 33.7076C72.4199 34.4182 73.2711 35.3444 73.8932 36.4206C74.5154 37.4967 74.8932 38.6966 75 39.9351C75 44.2301 69.925 48.5826 61.75 51.2876C54.6948 53.386 47.3596 54.3902 40 54.2651ZM40 28.7226C32.5853 28.6234 25.2021 29.7053 18.1275 31.9276C11.1275 34.3701 7.99 37.7101 7.99 39.9276C7.99 42.2476 11.3625 45.8951 18.7675 48.4276C25.6502 50.4922 32.8165 51.4533 40 51.2751C47.041 51.401 54.0598 50.4483 60.8125 48.4501C68.5 45.9026 72 42.2501 72 39.9351C71.8739 39.1406 71.5844 38.381 71.1497 37.7041C70.7151 37.0272 70.1449 36.4479 69.475 36.0026C67.1044 34.1704 64.4292 32.7707 61.5725 31.8676C54.5951 29.6769 47.3124 28.6152 40 28.7226Z" fill="#00D8FF"/>
<path d="M25.8 71.1074C24.6338 71.1342 23.4813 70.8512 22.46 70.2874C18.88 68.2224 17.64 62.2674 19.1425 54.3549C20.7991 46.7827 23.6695 39.5282 27.6425 32.8724C31.3693 26.1952 36.1405 20.1572 41.775 14.9874C44.2579 12.7242 47.1222 10.9188 50.235 9.65493C51.3609 9.12728 52.5891 8.85376 53.8325 8.85376C55.0759 8.85376 56.3041 9.12728 57.43 9.65493C61.1525 11.7999 62.385 18.3699 60.6475 26.8024C58.9397 33.9638 56.1439 40.821 52.3575 47.1349C48.7618 53.7333 44.1409 59.7187 38.6675 64.8674C36.0945 67.2194 33.1083 69.0748 29.86 70.3399C28.5596 70.8226 27.1869 71.0821 25.8 71.1074ZM30.2325 34.3574C26.4427 40.7308 23.6917 47.6667 22.0825 54.9049C20.7 62.1924 22.0275 66.5749 23.9575 67.6899C25.9575 68.8474 30.8125 67.7499 36.7075 62.5999C41.9326 57.6673 46.3431 51.9379 49.775 45.6249C53.4023 39.5887 56.0842 33.0328 57.7275 26.1849C59.3625 18.2474 57.95 13.3874 55.945 12.2324C55.1935 11.9445 54.3905 11.8156 53.5867 11.8539C52.7828 11.8922 51.9957 12.0969 51.275 12.4549C48.5042 13.5983 45.9568 15.2215 43.75 17.2499C38.3667 22.2019 33.8092 27.9823 30.25 34.3724L30.2325 34.3574Z" fill="#00D8FF"/>
<path d="M54.1926 71.1399C50.8051 71.1399 46.5026 69.0899 42.0226 65.2374C36.2894 60.0206 31.4376 53.9109 27.6551 47.1449C23.7319 40.5808 20.8843 33.4313 19.2201 25.9674C18.4984 22.6837 18.3646 19.2979 18.8251 15.9674C18.9316 14.732 19.3078 13.5349 19.9272 12.4606C20.5466 11.3863 21.3942 10.461 22.4101 9.74995C26.1276 7.59745 32.4351 9.80995 38.8726 15.5249C44.2241 20.5804 48.7686 26.4267 52.3476 32.8599C56.2684 39.2708 59.1459 46.2638 60.8726 53.5774C61.6254 56.9817 61.7415 60.4959 61.2151 63.9424C61.0899 65.2135 60.6912 66.4424 60.0465 67.5449C59.4019 68.6474 58.5264 69.5975 57.4801 70.3299C56.4755 70.8867 55.3409 71.1663 54.1926 71.1399ZM30.2426 45.6399C33.8712 52.106 38.5058 57.9533 43.9726 62.9624C49.5951 67.7999 54.0551 68.8399 55.9726 67.7124C57.9726 66.5499 59.4476 61.8049 57.9276 54.1274C56.2623 47.1448 53.5023 40.4697 49.7501 34.3499C46.3347 28.1928 41.997 22.5946 36.8876 17.7499C30.8276 12.3699 25.9126 11.1674 23.9101 12.3274C23.286 12.8347 22.7738 13.4658 22.4059 14.1809C22.038 14.8961 21.8223 15.6797 21.7726 16.4824C21.3751 19.4527 21.5046 22.4697 22.1551 25.3949C23.7559 32.5328 26.487 39.369 30.2451 45.6449L30.2426 45.6399Z" fill="#00D8FF"/>
</svg>
